<svg width="32" height="32" viewBox="0 0 32 32" fill="none" xmlns="http://www.w3.org/2000/svg">
<g clip-path="url(#clip0_61_8)">
<path d="M0.00366211 19.3666C0.00366211 17.0171 0.00366211 14.6672 0.00366211 12.3178C0.018267 12.124 0.0338456 11.9298 0.0474769 11.736C0.136567 10.4634 0.135593 9.17722 0.329839 7.92071C1.1224 2.7939 4.96057 0.44445 8.81968 0.207851C12.319 -0.00684188 15.8227 -0.058446 19.3265 0.0681301C20.9612 0.127037 22.617 0.135313 24.2196 0.415727C27.0632 0.913268 29.1994 2.4979 30.491 5.12436C31.3132 6.79613 31.5722 8.60276 31.5902 10.4347C31.6258 14.0407 31.6277 17.6471 31.5839 21.2526C31.5712 22.2954 31.4344 23.3523 31.2207 24.3746C30.3887 28.3564 27.3606 31.0486 23.3048 31.4244C21.9422 31.5505 20.5684 31.5622 19.1999 31.6279C19.0675 31.6342 18.936 31.6566 18.8041 31.6717H12.8672C12.7046 31.6561 12.542 31.6357 12.3794 31.626C10.86 31.5378 9.31966 31.5792 7.8246 31.3387C4.27658 30.7682 1.83658 28.7746 0.689607 25.3176C0.215434 23.8888 0.0985941 22.4005 0.0620818 20.905C0.0489374 20.3919 0.0231353 19.8792 0.00366211 19.3666ZM16.091 29.2585C18.3075 29.1641 20.7884 29.167 23.245 28.9241C25.8627 28.6655 27.6985 27.2206 28.584 24.6877C28.9828 23.5475 29.1093 22.3552 29.121 21.1591C29.1512 18.1091 29.1726 15.0586 29.142 12.0091C29.1288 10.7253 29.0626 9.42989 28.8693 8.16315C28.3825 4.97198 25.942 2.81775 22.727 2.68095C20.565 2.58894 18.4005 2.48963 16.238 2.50326C13.6223 2.51932 10.9963 2.53149 8.39468 2.76712C5.87046 2.99593 4.06383 4.39752 3.14713 6.82145C2.70801 7.98254 2.56634 9.20497 2.55271 10.4318C2.51814 13.5125 2.49818 16.5941 2.52837 19.6748C2.54102 20.9585 2.60772 22.254 2.80148 23.5207C3.28831 26.7022 5.71175 28.8515 8.91315 29.0024C11.2188 29.111 13.5264 29.1694 16.0915 29.259L16.091 29.2585Z" fill="#E7FFB3"/>
<path d="M8.0437 15.8228C8.05246 11.5659 11.5314 8.10454 15.7931 8.11379C20.0514 8.12304 23.5142 11.6029 23.504 15.8622C23.4938 20.119 20.0134 23.5814 15.7536 23.5716C11.4968 23.5619 8.03543 20.083 8.04419 15.8228H8.0437ZM15.776 21.0985C18.6673 21.0976 21.028 18.7384 21.0299 15.8476C21.0319 12.9539 18.6775 10.5927 15.7858 10.5879C12.8779 10.583 10.5144 12.9451 10.5173 15.8534C10.5207 18.7437 12.8823 21.0995 15.776 21.0985Z" fill="#E7FFB3"/>
<path d="M26.2238 7.49795C26.2219 8.52418 25.3787 9.35715 24.3495 9.34839C23.3359 9.33963 22.5137 8.50666 22.5151 7.49016C22.5166 6.46148 23.3569 5.63192 24.3885 5.6402C25.4016 5.64847 26.2258 6.48242 26.2238 7.49795Z" fill="#E7FFB3"/>
</g>
<defs>
<clipPath id="clip0_61_8">
<rect width="32" height="32" fill="white"/>
</clipPath>
</defs>
</svg>
