<svg width="32" height="32" viewBox="0 0 32 32" fill="none" xmlns="http://www.w3.org/2000/svg">
<g clip-path="url(#clip0_61_9)">
<path d="M24.4424 17.845C23.9824 18.9488 23.6693 20.0976 23.0506 21.1063C21.5246 23.5939 18.9335 24.4874 15.8043 24.383C13.8881 24.3192 12.1581 23.7913 10.7971 22.5846C7.94846 20.0595 8.91002 15.9907 12.6928 14.4293C14.6874 13.606 16.8059 13.5165 18.9558 13.6095C19.6477 13.6392 20.3379 13.7099 21.0326 13.7619C20.9429 11.9056 19.3655 10.4926 17.223 10.3219C15.2507 10.1646 13.4921 10.499 12.2266 12.0258C11.3393 11.5019 10.4743 10.9908 9.58191 10.4634C10.4652 9.30474 11.6136 8.47752 13.0591 7.99218C15.2227 7.2659 17.4281 7.2471 19.5991 7.94023C22.4158 8.83918 23.7876 10.7791 24.2013 13.2191C24.3738 14.2358 24.7943 14.7771 25.8444 15.2981C30.987 17.8514 31.9886 23.6899 28.0686 27.7562C26.2432 29.6496 23.9322 30.9057 21.168 31.4861C17.7617 32.2019 14.344 32.1832 10.968 31.3465C6.50126 30.2398 3.38177 27.7502 1.76432 24.0243C-0.609014 18.5584 -0.627868 13.0123 1.95057 7.5954C4.02452 3.23819 8.00445 0.870848 13.3579 0.197503C16.2997 -0.172071 19.2095 -0.0384901 22.0496 0.729846C26.778 2.00925 29.8084 4.81197 31.5001 8.77734C31.6761 9.18946 31.8177 9.61296 32 10.0958C30.9545 10.3392 29.9449 10.5747 28.9039 10.8172C28.7114 10.3472 28.5423 9.9014 28.3486 9.46404C26.6317 5.58526 23.3043 3.50189 18.6182 2.96361C16.2688 2.69398 13.9366 2.79837 11.6604 3.40245C7.83476 4.41766 5.46772 6.71772 4.32447 9.95038C2.88814 14.0137 2.87785 18.1211 4.38275 22.1755C5.92821 26.3392 9.34823 28.5745 14.3194 29.0529C17.0396 29.3146 19.7443 29.2117 22.2564 28.1648C24.7457 27.1279 26.6077 25.5704 27.1431 23.0947C27.6121 20.9248 26.4038 18.6519 24.4424 17.845ZM21.188 16.7328C21.0355 16.6893 20.9315 16.6378 20.8247 16.6329C19.3963 16.5636 17.9657 16.435 16.5385 16.4572C15.325 16.476 14.1395 16.7264 13.2019 17.4927C12.0095 18.4669 12.1101 20.012 13.4236 20.8605C14.1783 21.3483 15.0525 21.5467 15.97 21.5734C17.6777 21.6224 19.2009 21.284 20.1648 19.9101C20.8389 18.9488 21.0521 17.8757 21.188 16.7328Z" fill="#E7FFB3"/>
</g>
<defs>
<clipPath id="clip0_61_9">
<rect width="32" height="32" fill="white"/>
</clipPath>
</defs>
</svg>
